<svg width="165" height="44" viewBox="0 0 165 44" fill="none" xmlns="http://www.w3.org/2000/svg">
<path d="M23.5253 0.265259C20.436 0.265259 17.3768 0.825314 14.5225 1.91326C11.6683 3.00133 9.075 4.596 6.89037 6.60636C4.70587 8.61685 2.97307 11.0034 1.79075 13.6301C0.608567 16.2568 0 19.0722 0 21.9153C0 24.7584 0.608567 27.5737 1.79075 30.2004C2.97307 32.8271 4.70587 35.2137 6.89037 37.2242C9.075 39.2346 11.6683 40.8292 14.5225 41.9173C17.3768 43.0052 20.436 43.5653 23.5253 43.5653V32.7403C21.9806 32.7403 20.4511 32.4603 19.0239 31.9162C17.5968 31.3723 16.3001 30.5749 15.2079 29.5697C14.1156 28.5646 13.2492 27.3712 12.6581 26.0579C12.0669 24.7445 11.7627 23.3369 11.7627 21.9153C11.7627 20.4937 12.0669 19.0861 12.6581 17.7727C13.2492 16.4594 14.1156 15.266 15.2079 14.2608C16.3001 13.2556 17.5968 12.4583 19.0239 11.9143C20.4511 11.3702 21.9806 11.0903 23.5253 11.0903V0.265259Z" fill="#0F52FF"/>
<path d="M23.5254 29.1321C27.8563 29.1321 31.3672 25.9011 31.3672 21.9154C31.3672 17.9297 27.8563 14.6987 23.5254 14.6987C19.1945 14.6987 15.6837 17.9297 15.6837 21.9154C15.6837 25.9011 19.1945 29.1321 23.5254 29.1321Z" fill="#0F52FF"/>
<path d="M0 21.9153C0 24.7584 0.608567 27.5737 1.79075 30.2004C2.97307 32.8271 4.70587 35.2137 6.89037 37.2242C9.075 39.2346 11.6683 40.8292 14.5225 41.9173C17.3768 43.0053 20.436 43.5653 23.5253 43.5653C26.6147 43.5653 29.6739 43.0053 32.5282 41.9173C35.3824 40.8292 37.9757 39.2346 40.1603 37.2242C42.3448 35.2137 44.0776 32.8271 45.2599 30.2004C46.4421 27.5737 47.0507 24.7584 47.0507 21.9153H35.288C35.288 23.3369 34.9838 24.7445 34.3926 26.0579C33.8015 27.3712 32.9351 28.5646 31.8428 29.5697C30.7506 30.5749 29.4539 31.3723 28.0268 31.9162C26.5996 32.4603 25.0701 32.7403 23.5253 32.7403C21.9806 32.7403 20.4511 32.4603 19.0239 31.9162C17.5968 31.3723 16.3001 30.5749 15.2079 29.5697C14.1156 28.5646 13.2492 27.3712 12.6581 26.0579C12.0669 24.7445 11.7627 23.3369 11.7627 21.9153H0Z" fill="#5BD0F4"/>
<path d="M31.3673 21.9152C31.3673 20.0013 30.5411 18.1657 29.0705 16.8123C27.5999 15.4588 25.6053 14.6985 23.5255 14.6985C21.4458 14.6985 19.4512 15.4588 17.9805 16.8123C16.5099 18.1657 15.6837 20.0013 15.6837 21.9152H23.5255H31.3673Z" fill="#5BD0F4"/>
<path d="M59.337 13.781H56.4152V28.7195H59.337V13.781Z" fill="#0F52FF"/>
<path d="M61.245 23.4271C61.245 26.8843 63.8422 29.0184 67.2742 29.0184C70.7062 29.0184 73.3034 26.8843 73.3034 23.4271C73.3034 19.9699 70.7062 17.8358 67.2742 17.8358C63.8422 17.8358 61.245 19.9699 61.245 23.4271ZM64.1668 23.4271C64.1668 21.3784 65.4654 20.1833 67.2742 20.1833C69.083 20.1833 70.3816 21.3784 70.3816 23.4271C70.3816 25.4758 69.083 26.6709 67.2742 26.6709C65.4654 26.6709 64.1668 25.4758 64.1668 23.4271Z" fill="#0F52FF"/>
<path d="M83.7447 18.1346V19.5644H83.5128C82.8172 18.6468 81.7041 17.8358 79.7098 17.8358C76.9735 17.8358 74.5154 19.9699 74.5154 23.2564C74.5154 26.5428 76.9735 28.6769 79.7098 28.6769C81.7041 28.6769 82.8172 27.8446 83.4665 27.0123H83.6984V28.0367C83.6984 30.0854 82.3998 31.0244 80.4982 31.0244C78.5967 31.0244 77.6228 30.0854 77.2285 28.8689L74.6081 29.9147C75.2111 31.5152 76.9734 33.2865 80.5446 33.2865C84.2085 33.2865 86.6202 31.5152 86.6202 28.1007V18.1346H83.7447ZM80.591 26.3721C78.7822 26.3721 77.4372 25.177 77.4372 23.2564C77.4372 21.3357 78.7822 20.1406 80.591 20.1406C82.3998 20.1406 83.7447 21.3357 83.7447 23.2564C83.7447 25.177 82.3998 26.3721 80.591 26.3721Z" fill="#0F52FF"/>
<path d="M88.5105 23.4271C88.5105 26.8843 91.1077 29.0184 94.5397 29.0184C97.9717 29.0184 100.569 26.8843 100.569 23.4271C100.569 19.9699 97.9717 17.8358 94.5397 17.8358C91.1077 17.8358 88.5105 19.9699 88.5105 23.4271ZM91.4323 23.4271C91.4323 21.3784 92.7309 20.1833 94.5397 20.1833C96.3485 20.1833 97.6471 21.3784 97.6471 23.4271C97.6471 25.4758 96.3485 26.6709 94.5397 26.6709C92.7309 26.6709 91.4323 25.4758 91.4323 23.4271Z" fill="#0F52FF"/>
<path d="M102.862 15.0615C102.862 16.1499 103.767 16.8968 104.927 16.8968C106.086 16.8968 106.991 16.1499 106.991 15.0615C106.991 13.9732 106.086 13.2262 104.927 13.2262C103.767 13.2262 102.862 13.9732 102.862 15.0615ZM106.387 18.1346H103.466V28.7196H106.387V18.1346Z" fill="#5BD0F4"/>
<path d="M108.991 32.9877H111.913V27.3538H112.144C112.794 28.2074 113.907 29.0184 115.902 29.0184C118.637 29.0184 121.096 26.8843 121.096 23.4271C121.096 19.9699 118.637 17.8358 115.902 17.8358C113.907 17.8358 112.794 18.6468 112.099 19.5645H111.866V18.1346H108.991V32.9877ZM115.02 26.7136C113.212 26.7136 111.866 25.5185 111.866 23.4271C111.866 21.3357 113.212 20.1406 115.02 20.1406C116.829 20.1406 118.174 21.3357 118.174 23.4271C118.174 25.5185 116.829 26.7136 115.02 26.7136Z" fill="#5BD0F4"/>
<path d="M122.801 21.101C122.801 23.1924 124.702 23.9607 127.114 24.3875L127.717 24.4941C129.154 24.7502 129.804 25.0704 129.804 25.7533C129.804 26.4362 129.154 26.9697 127.81 26.9697C126.464 26.9697 125.375 26.4575 125.073 24.9209L122.383 25.5612C122.778 27.7806 124.795 29.0184 127.81 29.0184C130.731 29.0184 132.633 27.7593 132.633 25.5399C132.633 23.3203 130.685 22.7229 128.088 22.2534L127.485 22.1466C126.279 21.9332 125.63 21.6345 125.63 20.9303C125.63 20.2901 126.233 19.8845 127.346 19.8845C128.459 19.8845 129.247 20.3113 129.525 21.4637L132.17 20.7169C131.613 19.0096 129.921 17.8358 127.346 17.8358C124.609 17.8358 122.801 19.0096 122.801 21.101Z" fill="#5BD0F4"/>
<path d="M145.758 28.7195V18.1345H142.837V23.5977C142.837 25.5611 141.793 26.7135 140.007 26.7135C138.43 26.7135 137.549 25.9239 137.549 24.3233V18.1345H134.627V24.4514C134.627 27.0763 136.413 28.8902 139.103 28.8902C141.213 28.8902 142.187 28.0366 142.651 27.1403H142.882V28.7195H145.758Z" fill="#5BD0F4"/>
<path d="M148.349 18.1346V28.7196H151.272V22.4027C151.272 20.9516 152.014 20.1406 153.358 20.1406C154.518 20.1406 155.214 20.7382 155.214 21.8906V28.7196H158.136V22.4027C158.136 20.9516 158.878 20.1406 160.222 20.1406C161.383 20.1406 162.078 20.7382 162.078 21.8906V28.7196H165V21.7625C165 19.2016 163.283 17.9639 161.15 17.9639C159.272 17.9639 158.414 18.7321 157.858 19.6284H157.625C157.091 18.6255 156.141 17.9639 154.471 17.9639C152.802 17.9639 151.897 18.6468 151.458 19.4577H151.225V18.1346H148.349Z" fill="#5BD0F4"/>
</svg>
