<svg width="136" height="29" viewBox="0 0 136 29" fill="none" xmlns="http://www.w3.org/2000/svg">
<rect width="136" height="29" fill="#1E1E1E"/>
<g id="Product Landing Page" clip-path="url(#clip0_0_1)">
<rect width="1600" height="3120" transform="translate(-1209 -899)" fill="white"/>
<g id="Behance Post page" clip-path="url(#clip1_0_1)">
<rect width="1600" height="3120" transform="translate(-1209 -899)" fill="#FEFEFE"/>
<g id="Group 95">
<g id="social proof">
<g id="Group 33" opacity="0.7">
<g id="Group 10" opacity="0.7">
<g id="Group 9">
<path id="Vector" d="M20.4582 12.8227C20.0784 13.2234 19.7876 13.707 19.6064 14.2391C19.4252 14.7711 19.3581 15.3385 19.41 15.9009L19.3919 15.8819C19.4452 16.5439 19.3601 17.21 19.1425 17.8339C18.925 18.4578 18.5802 19.0243 18.1323 19.4941C17.6844 19.9638 17.1442 20.3253 16.5493 20.5535C15.9544 20.7816 15.3191 20.8709 14.688 20.815L14.706 20.8339C13.951 20.7602 13.1926 20.9325 12.5344 21.3274C11.8762 21.7222 11.3501 22.3203 11.0279 23.0401C10.7057 23.76 10.603 24.5665 10.7339 25.3498C10.8648 26.1331 11.2229 26.855 11.7593 27.417C12.2958 27.9791 12.9844 28.3539 13.7315 28.4905C14.4785 28.627 15.2475 28.5187 15.9336 28.1801C16.6197 27.8416 17.1896 27.2893 17.5655 26.5987C17.9414 25.908 18.105 25.1126 18.034 24.3209L18.0531 24.3398C17.9998 23.6779 18.0849 23.0117 18.3025 22.3879C18.52 21.764 18.8648 21.1974 19.3127 20.7277C19.7606 20.258 20.3009 19.8964 20.8958 19.6683C21.4907 19.4401 22.1259 19.3509 22.7571 19.4068L22.738 19.3878C23.3548 19.446 23.9756 19.34 24.5428 19.0795C25.1101 18.8191 25.6055 18.4127 25.9831 17.898C26.3608 17.3834 26.6084 16.7771 26.7031 16.1353C26.7978 15.4935 26.7364 14.8371 26.5248 14.2268C26.3131 13.6165 25.958 13.0721 25.4923 12.6441C25.0266 12.216 24.4654 11.9182 23.8607 11.7782C23.2561 11.6382 22.6274 11.6605 22.0332 11.8431C21.4389 12.0257 20.8982 12.3626 20.4612 12.8227H20.4582Z" fill="#394149"/>
<path id="Vector_2" d="M13.0654 18.3559L13.0464 18.337C13.5829 18.3936 14.1246 18.3246 14.6325 18.1348C15.1404 17.945 15.6018 17.6392 15.9832 17.2395C16.3646 16.8399 16.6565 16.3563 16.8379 15.8238C17.0192 15.2913 17.0855 14.7232 17.0318 14.1606L17.0509 14.1795C16.9976 13.5176 17.0827 12.8514 17.3003 12.2275C17.5178 11.6037 17.8626 11.0371 18.3105 10.5674C18.7584 10.0977 19.2986 9.73613 19.8935 9.50798C20.4884 9.27983 21.1237 9.19057 21.7548 9.24645L21.7358 9.22753C22.4909 9.3019 23.2495 9.13018 23.9081 8.73581C24.5667 8.34143 25.0932 7.7436 25.4159 7.02385C25.7386 6.30411 25.8418 5.49749 25.7113 4.71402C25.5807 3.93055 25.223 3.20837 24.6867 2.64598C24.1504 2.08359 23.4618 1.70838 22.7147 1.57152C21.9676 1.43466 21.1984 1.54281 20.5121 1.88123C19.8258 2.21964 19.2557 2.77185 18.8796 3.46252C18.5036 4.15319 18.3398 4.94871 18.4108 5.74056L18.3927 5.72059C18.4462 6.38256 18.3612 7.04879 18.1437 7.67275C17.9262 8.2967 17.5814 8.86335 17.1335 9.33311C16.6856 9.80286 16.1452 10.1644 15.5502 10.3925C14.9553 10.6206 14.32 10.7097 13.6888 10.6536L13.7068 10.6736C13.1703 10.6169 12.6285 10.686 12.1206 10.8758C11.6127 11.0655 11.1514 11.3713 10.77 11.771C10.3886 12.1707 10.0967 12.6543 9.9153 13.1868C9.73394 13.7192 9.66769 14.2873 9.72134 14.85L9.7033 14.8311C9.75641 15.493 9.67118 16.159 9.45356 16.7828C9.23594 17.4066 8.89118 17.9731 8.44331 18.4428C7.99544 18.9124 7.45526 19.274 6.86044 19.5022C6.26562 19.7304 5.63048 19.8198 4.99933 19.7641L5.01737 19.783C4.26229 19.7087 3.50372 19.8804 2.84512 20.2748C2.18652 20.6691 1.65995 21.267 1.33725 21.9867C1.01455 22.7065 0.911417 23.5131 1.04192 24.2965C1.17243 25.08 1.53022 25.8022 2.06649 26.3646C2.60276 26.927 3.29141 27.3022 4.0385 27.439C4.78559 27.5759 5.55475 27.4678 6.24107 27.1293C6.9274 26.7909 7.49747 26.2387 7.87353 25.548C8.24959 24.8574 8.41333 24.0619 8.34242 23.27L8.36146 23.2889C8.30818 22.627 8.39329 21.9608 8.61084 21.337C8.8284 20.7131 9.17316 20.1465 9.62106 19.6768C10.069 19.2071 10.6092 18.8455 11.2041 18.6174C11.799 18.3892 12.4342 18.3 13.0654 18.3559Z" fill="#394149"/>
<path id="Vector_3" d="M6.34934 16.2467C6.72916 15.846 7.01996 15.3624 7.20098 14.8303C7.38201 14.2982 7.44878 13.7308 7.39655 13.1685L7.41559 13.1874C7.36227 12.5253 7.44742 11.859 7.66508 11.2349C7.88275 10.6109 8.2277 10.0442 8.67583 9.57443C9.12396 9.10468 9.66447 8.74317 10.2596 8.51517C10.8548 8.28716 11.4902 8.19815 12.1215 8.25435L12.1025 8.23544C12.8573 8.30959 13.6156 8.13778 14.2739 7.74343C14.9322 7.34909 15.4584 6.7514 15.7809 6.03187C16.1034 5.31235 16.2065 4.50602 16.076 3.72284C15.9455 2.93966 15.5878 2.21775 15.0517 1.65556C14.5157 1.09338 13.8273 0.718282 13.0805 0.581426C12.3337 0.44457 11.5648 0.552617 10.8787 0.890831C10.1926 1.22905 9.62265 1.78096 9.24662 2.47132C8.87058 3.16168 8.70675 3.95687 8.77747 4.74845L8.75943 4.72953C8.81271 5.39146 8.7276 6.05761 8.51005 6.68149C8.2925 7.30536 7.94774 7.87193 7.49984 8.34165C7.05193 8.81137 6.51168 9.17292 5.91678 9.40107C5.32188 9.62922 4.68667 9.71847 4.05549 9.6626L4.07353 9.68151C3.45679 9.62351 2.83608 9.72971 2.2689 9.99025C1.70172 10.2508 1.20643 10.6573 0.828919 11.172C0.451411 11.6867 0.203901 12.2931 0.109326 12.9348C0.0147506 13.5766 0.0761695 14.233 0.287892 14.8432C0.499614 15.4534 0.854789 15.9977 1.3205 16.4257C1.78622 16.8536 2.3474 17.1514 2.95206 17.2913C3.55671 17.4313 4.18527 17.4089 4.77949 17.2263C5.37371 17.0437 5.91436 16.7067 6.35134 16.2467H6.34934Z" fill="#394149"/>
<path id="Vector_4" d="M37.3922 5.76465H40.3685V20.9537H37.3922V5.76465Z" fill="#394149"/>
<path id="Vector_5" d="M42.0541 15.7526C42.0499 14.6611 42.3548 13.5928 42.93 12.6831C43.5052 11.7735 44.325 11.0633 45.2854 10.6425C46.2458 10.2218 47.3037 10.1094 48.3251 10.3197C49.3464 10.53 50.2853 11.0534 51.0228 11.8237C51.7602 12.5939 52.2631 13.5764 52.4677 14.6466C52.6723 15.7169 52.5694 16.8267 52.1721 17.8356C51.7747 18.8444 51.1008 19.7069 50.2357 20.3138C49.3705 20.9207 48.3531 21.2446 47.3122 21.2446C46.6213 21.2529 45.9357 21.1167 45.2956 20.8439C44.6555 20.5711 44.0736 20.1672 43.5841 19.6558C43.0945 19.1445 42.7071 18.5359 42.4444 17.8658C42.1817 17.1956 42.049 16.4772 42.0541 15.7526ZM49.5941 15.7526C49.5816 15.2821 49.4373 14.8259 49.1789 14.441C48.9206 14.0561 48.5599 13.7596 48.1417 13.5885C47.7236 13.4175 47.2667 13.3795 46.8281 13.4793C46.3894 13.5791 45.9886 13.8123 45.6757 14.1496C45.3627 14.487 45.1516 14.9137 45.0686 15.3762C44.9856 15.8388 45.0345 16.3167 45.2092 16.7503C45.3838 17.1839 45.6764 17.5539 46.0505 17.814C46.4245 18.0741 46.8634 18.2128 47.3122 18.2128C47.6196 18.2214 47.9253 18.1631 48.2102 18.0416C48.495 17.9201 48.7527 17.7381 48.9671 17.5069C49.1815 17.2758 49.3479 17.0006 49.4558 16.6986C49.5637 16.3967 49.6108 16.0746 49.5941 15.7526Z" fill="#394149"/>
<path id="Vector_6" d="M64.4325 10.5505V20.4292C64.4325 23.9246 61.833 25.4022 59.1944 25.4022C58.2654 25.4751 57.3352 25.2783 56.5058 24.8334C55.6763 24.3885 54.9798 23.7126 54.4925 22.8799L57.0318 21.3403C57.2367 21.7744 57.563 22.1325 57.9672 22.3667C58.3714 22.6009 58.8342 22.7 59.2936 22.6508C59.5872 22.6935 59.8862 22.6664 60.1685 22.5715C60.4508 22.4766 60.7091 22.3164 60.9244 22.1027C61.1396 21.8889 61.3063 21.6272 61.412 21.3368C61.5178 21.0464 61.56 20.7348 61.5354 20.425V19.4739C61.1869 19.9211 60.7432 20.2764 60.2401 20.5113C59.737 20.7462 59.1883 20.8541 58.6382 20.8264C57.3293 20.7831 56.0877 20.2074 55.1764 19.2211C54.2651 18.2348 53.7555 16.9153 53.7555 15.5419C53.7555 14.1685 54.2651 12.849 55.1764 11.8626C56.0877 10.8763 57.3293 10.3006 58.6382 10.2573C59.1883 10.2296 59.737 10.3375 60.2401 10.5724C60.7432 10.8073 61.1869 11.1626 61.5354 11.6098V10.5484L64.4325 10.5505ZM61.5364 15.5434C61.5564 15.0404 61.4324 14.5426 61.1803 14.1142C60.9283 13.6857 60.5597 13.3461 60.1221 13.1391C59.6845 12.9322 59.1978 12.8673 58.7247 12.9528C58.2516 13.0384 57.8137 13.2704 57.4675 13.6192C57.1212 13.9679 56.8824 14.4173 56.7817 14.9096C56.6811 15.4018 56.7232 15.9144 56.9027 16.3814C57.0822 16.8483 57.3908 17.2482 57.7889 17.5297C58.187 17.8111 58.6562 17.9612 59.1363 17.9606C59.449 17.9835 59.7628 17.9374 60.0575 17.8254C60.3522 17.7133 60.6213 17.5378 60.8474 17.3101C61.0735 17.0824 61.2516 16.8076 61.3703 16.5033C61.489 16.199 61.5455 15.872 61.5364 15.5434Z" fill="#394149"/>
<path id="Vector_7" d="M66.1177 15.7526C66.1135 14.6611 66.4184 13.5928 66.9936 12.6831C67.5688 11.7735 68.3886 11.0633 69.349 10.6425C70.3095 10.2218 71.3674 10.1094 72.3887 10.3197C73.4101 10.53 74.349 11.0534 75.0865 11.8237C75.824 12.5939 76.3268 13.5764 76.5314 14.6466C76.736 15.7169 76.6332 16.8267 76.2358 17.8356C75.8384 18.8444 75.1645 19.7069 74.2994 20.3138C73.4342 20.9207 72.4167 21.2446 71.3759 21.2446C70.685 21.2529 69.9994 21.1167 69.3593 20.8439C68.7191 20.5711 68.1373 20.1672 67.6477 19.6558C67.1581 19.1445 66.7707 18.5359 66.508 17.8658C66.2453 17.1956 66.1126 16.4772 66.1177 15.7526ZM73.6577 15.7526C73.6453 15.2821 73.5009 14.8259 73.2426 14.441C72.9843 14.0561 72.6235 13.7596 72.2054 13.5885C71.7873 13.4175 71.3303 13.3795 70.8917 13.4793C70.4531 13.5791 70.0523 13.8123 69.7393 14.1496C69.4264 14.487 69.2152 14.9137 69.1322 15.3762C69.0493 15.8388 69.0982 16.3167 69.2728 16.7503C69.4474 17.1839 69.7401 17.5539 70.1141 17.814C70.4882 18.0741 70.9271 18.2128 71.3759 18.2128C71.6833 18.2214 71.989 18.1631 72.2738 18.0416C72.5587 17.9201 72.8164 17.7381 73.0308 17.5069C73.2452 17.2758 73.4116 17.0006 73.5195 16.6986C73.6274 16.3967 73.6745 16.0746 73.6577 15.7526Z" fill="#394149"/>
<path id="Vector_8" d="M78.0222 7.76247C78.0222 7.39207 78.127 7.02999 78.3232 6.72202C78.5194 6.41405 78.7983 6.17401 79.1246 6.03227C79.4509 5.89052 79.81 5.85343 80.1564 5.92569C80.5028 5.99796 80.821 6.17632 81.0707 6.43823C81.3204 6.70014 81.4905 7.03383 81.5594 7.39711C81.6283 7.76039 81.593 8.13694 81.4578 8.47914C81.3227 8.82134 81.0938 9.11382 80.8001 9.3196C80.5064 9.52538 80.1612 9.63522 79.808 9.63522C79.3358 9.6303 78.8843 9.43141 78.5504 9.08126C78.2166 8.73111 78.0269 8.25762 78.0222 7.76247ZM78.3229 10.5506H81.3001V20.9548H78.3188L78.3229 10.5506Z" fill="#394149"/>
<path id="Vector_9" d="M94.1513 15.7526C94.1857 16.4402 94.0901 17.1282 93.8701 17.7769C93.6501 18.4256 93.3099 19.0224 92.8692 19.5328C92.4285 20.0432 91.896 20.4572 91.3022 20.751C90.7084 21.0448 90.0651 21.2126 89.4092 21.2447C88.8577 21.2763 88.3063 21.1788 87.7952 20.9592C87.284 20.7396 86.8259 20.4035 86.454 19.9752V25.1153H83.4777V10.5506H86.454V11.5279C86.8261 11.1 87.2843 10.7641 87.7954 10.5448C88.3065 10.3254 88.8578 10.2279 89.4092 10.2595C90.0652 10.2915 90.7087 10.4592 91.3026 10.753C91.8965 11.0469 92.4292 11.461 92.8699 11.9715C93.3107 12.4821 93.6508 13.079 93.8707 13.7279C94.0906 14.3768 94.1859 15.0649 94.1513 15.7526ZM91.175 15.7526C91.1633 15.2657 91.015 14.7932 90.7486 14.3942C90.4821 13.9953 90.1094 13.6876 89.677 13.5097C89.2447 13.3318 88.7719 13.2916 88.3178 13.3941C87.8638 13.4966 87.4486 13.7373 87.1244 14.086C86.8001 14.4347 86.5811 14.876 86.4948 15.3546C86.4085 15.8332 86.4587 16.3278 86.6392 16.7766C86.8197 17.2254 87.1223 17.6085 87.5093 17.8778C87.8964 18.1471 88.3505 18.2907 88.815 18.2906C89.1338 18.3055 89.4521 18.2495 89.7489 18.1264C90.0457 18.0032 90.3143 17.8157 90.5371 17.5761C90.76 17.3364 90.932 17.0501 91.0419 16.7358C91.1518 16.4216 91.1972 16.0865 91.175 15.7526Z" fill="#394149"/>
<path id="Vector_10" d="M103.336 17.8324C103.336 20.2253 101.352 21.2447 99.2099 21.2447C98.3442 21.327 97.4749 21.135 96.7144 20.6936C95.9539 20.2522 95.3371 19.5817 94.9438 18.7688L97.5223 17.2291C97.6266 17.6049 97.8506 17.9318 98.157 18.1552C98.4634 18.3786 98.8337 18.485 99.2058 18.4566C99.9194 18.4566 100.277 18.2275 100.277 17.8124C100.277 16.6669 95.3958 17.2712 95.3958 13.6718C95.3958 11.4028 97.2217 10.2594 99.285 10.2594C100.061 10.2337 100.829 10.4266 101.509 10.8181C102.189 11.2096 102.757 11.7853 103.153 12.4853L100.614 13.9208C100.502 13.6483 100.317 13.4162 100.081 13.2534C99.8445 13.0906 99.5677 13.0044 99.285 13.0055C98.7689 13.0055 98.4513 13.2157 98.4513 13.5877C98.4553 14.7742 103.336 13.9828 103.336 17.8324Z" fill="#394149"/>
<path id="Vector_11" d="M114.208 10.5506V20.9546H111.231V19.9762C110.888 20.408 110.452 20.7481 109.959 20.9688C109.466 21.1895 108.93 21.2844 108.395 21.2457C106.391 21.2457 104.688 19.7482 104.688 16.937V10.5506H107.664V16.4798C107.639 16.7276 107.666 16.9781 107.743 17.2139C107.819 17.4497 107.944 17.6651 108.109 17.8452C108.273 18.0252 108.473 18.1655 108.694 18.2564C108.915 18.3473 109.152 18.3866 109.39 18.3715C110.481 18.3715 111.234 17.7063 111.234 16.2287V10.5538L114.208 10.5506Z" fill="#394149"/>
<path id="Vector_12" d="M131.274 14.5662V20.9537H128.298V14.8363C128.298 13.7958 127.822 13.1306 126.87 13.1306C125.878 13.1306 125.321 13.8589 125.321 15.0864V20.9537H122.346V14.8363C122.346 13.7958 121.87 13.1306 120.917 13.1306C119.925 13.1306 119.37 13.8589 119.37 15.0864V20.9537H116.394V10.5496H119.37V11.5059C119.678 11.0816 120.083 10.7452 120.548 10.5273C121.012 10.3093 121.521 10.2169 122.028 10.2584C122.538 10.2323 123.045 10.345 123.5 10.5856C123.956 10.8261 124.344 11.1863 124.627 11.631C124.957 11.1657 125.394 10.7958 125.897 10.5558C126.4 10.3158 126.953 10.2135 127.504 10.2584C129.782 10.2595 131.274 11.9651 131.274 14.5662Z" fill="#394149"/>
<path id="Vector_13" d="M133.791 10.4866C135.011 10.4866 136 9.44958 136 8.17032C136 6.89105 135.011 5.854 133.791 5.854C132.571 5.854 131.583 6.89105 131.583 8.17032C131.583 9.44958 132.571 10.4866 133.791 10.4866Z" fill="#394149"/>
</g>
</g>
</g>
</g>
</g>
</g>
</g>
<defs>
<clipPath id="clip0_0_1">
<rect width="1600" height="3120" fill="white" transform="translate(-1209 -899)"/>
</clipPath>
<clipPath id="clip1_0_1">
<rect width="1600" height="3120" fill="white" transform="translate(-1209 -899)"/>
</clipPath>
</defs>
</svg>
