<svg width="127" height="32" viewBox="0 0 127 32" fill="none" xmlns="http://www.w3.org/2000/svg">
<rect width="127" height="32" fill="#1E1E1E"/>
<g id="Product Landing Page" clip-path="url(#clip0_0_1)">
<rect width="1600" height="3120" transform="translate(-234 -898)" fill="white"/>
<g id="Behance Post page" clip-path="url(#clip1_0_1)">
<rect width="1600" height="3120" transform="translate(-234 -898)" fill="#FEFEFE"/>
<g id="Group 95">
<g id="social proof">
<g id="Group 33" opacity="0.7">
<g id="Group 10" opacity="0.7">
<g id="Group 4">
<path id="Vector" d="M36.0664 9.96321H39.2832V23.6251H36.0664V9.96321ZM40.5659 18.4861C40.5659 15.1022 42.5702 13.0739 45.5766 13.0739C48.5829 13.0739 50.5872 15.1022 50.5872 18.4861C50.5872 21.8701 48.6531 23.9194 45.5766 23.9194C42.5 23.9194 40.5659 21.9436 40.5659 18.4861ZM47.4004 18.4861C47.4004 16.626 46.709 15.5331 45.6066 15.5331C44.5043 15.5331 43.8228 16.584 43.8228 18.4861C43.8228 20.3883 44.5043 21.4287 45.6066 21.4287C46.709 21.4287 47.4205 20.3883 47.4205 18.4966L47.4004 18.4861ZM51.8699 24.3292H54.9765C55.1179 24.68 55.3649 24.9725 55.6797 25.1623C55.9946 25.3521 56.36 25.4286 56.7202 25.3801C57.9528 25.3801 58.5941 24.6865 58.5941 23.6566V21.765H58.6042C58.3387 22.354 57.9094 22.845 57.3728 23.1732C56.8362 23.5015 56.2174 23.6517 55.5978 23.6041C53.2428 23.6041 51.6795 21.7229 51.6795 18.4861C51.6795 15.2493 53.1727 13.2316 55.688 13.2316C56.3234 13.1959 56.9538 13.3678 57.4922 13.7235C58.0307 14.0792 58.4507 14.6013 58.6944 15.2178H58.6042V13.3156H61.7909V23.5515C61.7909 26.0212 59.7065 27.566 56.64 27.566C53.8541 27.5555 52.0703 26.2209 51.8899 24.3397L51.8699 24.3292ZM58.6042 18.4861C58.6042 16.8362 57.8826 15.7958 56.7402 15.7958C55.5978 15.7958 54.8963 16.8467 54.8963 18.4861C54.8963 20.1256 55.5878 21.0924 56.7402 21.0924C57.8927 21.0924 58.6042 20.1991 58.6042 18.4861ZM63.0636 18.4861C63.0636 15.1022 65.0679 13.0739 68.0742 13.0739C71.0806 13.0739 73.0849 15.1022 73.0849 18.4861C73.0849 21.8701 71.1407 23.9194 68.0742 23.9194C65.0077 23.9194 63.0837 21.9436 63.0837 18.4861H63.0636ZM69.8981 18.4861C69.8981 16.626 69.1966 15.5331 68.1043 15.5331C67.012 15.5331 66.3205 16.584 66.3205 18.4861C66.3205 20.3883 67.002 21.4287 68.1043 21.4287C69.2066 21.4287 69.9181 20.3883 69.9181 18.4966L69.8981 18.4861ZM74.3876 10.825C74.3736 10.4813 74.458 10.1412 74.6298 9.84823C74.8017 9.55529 75.0532 9.32298 75.352 9.18118C75.6508 9.03938 75.9833 8.99458 76.3066 9.05254C76.6298 9.1105 76.9292 9.26857 77.1661 9.50642C77.403 9.74426 77.5667 10.051 77.636 10.3872C77.7053 10.7234 77.6771 11.0736 77.555 11.3928C77.433 11.7121 77.2226 11.9857 76.951 12.1785C76.6795 12.3714 76.3591 12.4746 76.0311 12.4749C75.8215 12.4805 75.6129 12.4424 75.4175 12.3627C75.222 12.2831 75.0436 12.1636 74.8926 12.011C74.7416 11.8585 74.6209 11.6761 74.5377 11.4743C74.4544 11.2725 74.4102 11.0553 74.4077 10.8355L74.3876 10.825ZM74.3876 13.3051H77.6445V23.6671H74.4377L74.3876 13.3051ZM89.3593 18.4861C89.3593 21.8596 87.9163 23.8143 85.4611 23.8143C84.8325 23.8549 84.2072 23.6923 83.6696 23.3484C83.1319 23.0045 82.7079 22.4958 82.4547 21.8911H82.3946V26.9985H79.1778V13.3366H82.3745V15.1863H82.4347C82.6792 14.5696 83.099 14.0471 83.637 13.6898C84.175 13.3325 84.805 13.1578 85.441 13.1895C87.9664 13.1685 89.4195 15.1127 89.4195 18.4966L89.3593 18.4861ZM86.0824 18.4861C86.0824 16.8467 85.3508 15.7853 84.2184 15.7853C83.086 15.7853 82.3745 16.8362 82.3645 18.4861C82.3545 20.1361 83.086 21.1765 84.2184 21.1765C85.3508 21.1765 86.1425 20.1991 86.1425 18.4966L86.0824 18.4861ZM94.851 13.0634C97.5467 13.0634 99.2202 14.3981 99.2403 16.5419H96.3041C96.3041 15.7958 95.7128 15.3334 94.8309 15.3334C93.9491 15.3334 93.5282 15.6907 93.5282 16.2267C93.5282 16.7626 93.899 16.9308 94.6405 17.0884L96.7049 17.5298C98.7092 17.9712 99.5109 18.8119 99.5109 20.3778C99.5109 22.4796 97.6569 23.9089 94.9011 23.9089C92.1452 23.9089 90.3514 22.5216 90.2212 20.4093H93.3378C93.428 21.1765 94.0092 21.6284 94.9512 21.6284C95.8932 21.6284 96.3341 21.3131 96.3341 20.7561C96.3341 20.1991 96.0335 20.1045 95.2619 19.9364L93.3979 19.5265C91.4638 19.0957 90.4517 18.0342 90.4517 16.4474C90.5118 14.3876 92.1954 13.0739 94.9111 13.0739L94.851 13.0634ZM110.284 23.6566H107.167V21.7124H107.107C106.932 22.3609 106.553 22.9277 106.03 23.3193C105.507 23.711 104.872 23.9041 104.231 23.8668C103.746 23.8834 103.264 23.7923 102.816 23.5996C102.367 23.4069 101.963 23.117 101.629 22.7488C101.295 22.3806 101.039 21.9425 100.878 21.4633C100.716 20.984 100.654 20.4744 100.693 19.9679V13.3156H103.91V19.2428C103.91 20.4619 104.521 21.1239 105.524 21.1239C105.759 21.1221 105.991 21.0673 106.204 20.9634C106.417 20.8595 106.607 20.7088 106.76 20.5215C106.912 20.3343 107.025 20.1148 107.09 19.8778C107.156 19.6409 107.171 19.3921 107.137 19.1482V13.3156H110.344L110.284 23.6566ZM111.837 13.3051H114.964V15.3019H115.034C115.207 14.6622 115.577 14.1007 116.086 13.7052C116.596 13.3096 117.216 13.1024 117.85 13.116C118.486 13.0579 119.12 13.2509 119.628 13.6571C120.136 14.0633 120.481 14.6535 120.596 15.3124H120.736C120.936 14.65 121.339 14.0756 121.883 13.6784C122.427 13.2812 123.08 13.0835 123.742 13.116C124.182 13.0984 124.621 13.1785 125.029 13.3509C125.437 13.5233 125.806 13.7843 126.112 14.1166C126.417 14.4489 126.653 14.8452 126.802 15.2794C126.952 15.7137 127.012 16.1761 126.979 16.6365V23.6671H123.742V17.4983C123.742 16.4474 123.271 15.8588 122.359 15.8588C122.157 15.8554 121.956 15.8978 121.771 15.9832C121.586 16.0686 121.421 16.195 121.287 16.3538C121.152 16.5125 121.052 16.6997 120.994 16.9027C120.935 17.1057 120.919 17.3196 120.946 17.5298V23.6671H117.88V17.4667C117.88 16.4158 117.389 15.8588 116.507 15.8588C116.302 15.8571 116.1 15.9013 115.913 15.9884C115.727 16.0754 115.56 16.2034 115.424 16.3636C115.288 16.5239 115.187 16.7127 115.126 16.9175C115.066 17.1222 115.048 17.3382 115.074 17.5508V23.6671H111.857L111.837 13.3051Z" fill="#394149"/>
<path id="Vector_2" d="M29.7029 10.8565C29.703 8.76486 29.1007 6.72193 27.9749 4.99533C26.8491 3.26872 25.2523 1.93895 23.3936 1.18018C21.535 0.421404 19.5011 0.269018 17.5585 0.742976C15.6158 1.21693 13.8549 2.29514 12.5065 3.83636H0V31.5176H26.406V18.5808C27.4424 17.6087 28.2717 16.4183 28.8398 15.0873C29.4079 13.7563 29.702 12.3147 29.7029 10.8565ZM24.6222 10.8565C24.6242 11.8588 24.3426 12.8392 23.813 13.6736C23.2835 14.508 22.5298 15.1589 21.6473 15.5439C20.7649 15.9289 19.7934 16.0307 18.8558 15.8364C17.9181 15.6422 17.0565 15.1605 16.38 14.4526C15.7035 13.7446 15.2425 12.842 15.0553 11.8591C14.8681 10.8762 14.9631 9.8572 15.3284 8.931C15.6937 8.0048 16.3128 7.21306 17.1074 6.656C17.9019 6.09893 18.8362 5.80158 19.7919 5.80158C21.0713 5.80158 22.2983 6.33381 23.2039 7.2815C24.1095 8.22918 24.6195 9.5149 24.6222 10.8565ZM21.3252 26.1895H5.08077V9.16453H10.0313C9.93563 9.72306 9.88534 10.2891 9.88094 10.8565C9.88359 13.6122 10.9286 16.2543 12.7867 18.2028C14.6448 20.1514 17.1642 21.2474 19.7919 21.2501C20.3057 21.2473 20.8184 21.2016 21.3252 21.1135V26.1895Z" fill="#394149"/>
</g>
</g>
</g>
</g>
</g>
</g>
</g>
<defs>
<clipPath id="clip0_0_1">
<rect width="1600" height="3120" fill="white" transform="translate(-234 -898)"/>
</clipPath>
<clipPath id="clip1_0_1">
<rect width="1600" height="3120" fill="white" transform="translate(-234 -898)"/>
</clipPath>
</defs>
</svg>
