<svg width="120" height="30" viewBox="0 0 120 30" fill="none" xmlns="http://www.w3.org/2000/svg">
<rect width="120" height="30" fill="#1E1E1E"/>
<g id="Product Landing Page" clip-path="url(#clip0_0_1)">
<rect width="1600" height="3120" transform="translate(-1013 -899)" fill="white"/>
<g id="Behance Post page" clip-path="url(#clip1_0_1)">
<rect width="1600" height="3120" transform="translate(-1013 -899)" fill="#FEFEFE"/>
<g id="Group 95">
<g id="social proof">
<g id="Group 33" opacity="0.7">
<g id="Group 10" opacity="0.7">
<g id="Group 8">
<path id="Vector" d="M35.1239 8.55412H38.1303V21.3018H35.1239V8.55412ZM39.3228 16.4886C39.3228 13.3358 41.1667 11.4547 44.0127 11.4547C46.8588 11.4547 48.7027 13.3358 48.7027 16.4886C48.7027 19.6413 46.8988 21.533 44.0127 21.533C41.1266 21.533 39.3228 19.6939 39.3228 16.4886ZM45.6863 16.4886C45.6863 14.7545 45.0349 13.7351 44.0127 13.7351C42.9906 13.7351 42.3492 14.7861 42.3492 16.4886C42.3492 18.191 42.9805 19.2209 44.0127 19.2209C45.0449 19.2209 45.6863 18.2541 45.6863 16.4991V16.4886ZM49.8351 21.9218H52.7212C52.8585 22.2418 53.0908 22.5067 53.3833 22.6772C53.6758 22.8476 54.013 22.9144 54.3446 22.8676C55.4871 22.8676 56.0883 22.2161 56.0883 21.2702V19.5047H56.0282C55.7887 20.0458 55.4 20.4992 54.9123 20.8064C54.4247 21.1136 53.8604 21.2606 53.2924 21.2282C51.0977 21.2282 49.6447 19.4732 49.6447 16.457C49.6447 13.4409 51.0276 11.5387 53.3325 11.5387C53.9183 11.5146 54.4972 11.6789 54.9915 12.0095C55.4859 12.34 55.872 12.8212 56.0983 13.3883V11.6333H59.1047V21.1967C59.1047 23.4982 57.1706 24.9274 54.3146 24.9274C51.6589 24.9274 50.0054 23.6768 49.8351 21.9323V21.9218ZM56.0983 16.478C56.0983 14.9437 55.4269 13.9769 54.3647 13.9769C53.3024 13.9769 52.651 14.9332 52.651 16.478C52.651 18.0229 53.2924 18.8952 54.3647 18.8952C55.4369 18.8952 56.0983 18.0439 56.0983 16.4886V16.478ZM60.2371 16.478C60.2371 13.3253 62.081 11.4441 64.9271 11.4441C67.7731 11.4441 69.627 13.3253 69.627 16.478C69.627 19.6308 67.8232 21.5225 64.9271 21.5225C62.0309 21.5225 60.2371 19.6939 60.2371 16.4886V16.478ZM66.6006 16.478C66.6006 14.744 65.9492 13.7246 64.9271 13.7246C63.9049 13.7246 63.3136 14.7861 63.3136 16.4991C63.3136 18.2121 63.945 19.2315 64.9671 19.2315C65.9893 19.2315 66.6006 18.2541 66.6006 16.4991V16.478ZM70.7694 9.34231C70.7616 9.02399 70.844 8.71039 71.0063 8.44126C71.1685 8.17212 71.4034 7.95958 71.681 7.83057C71.9586 7.70156 72.2664 7.66189 72.5656 7.71659C72.8647 7.7713 73.1416 7.91791 73.3612 8.13785C73.5807 8.35778 73.7331 8.64113 73.7989 8.95198C73.8648 9.26283 73.8411 9.58718 73.731 9.88391C73.6208 10.1806 73.4291 10.4364 73.1802 10.6187C72.9313 10.8011 72.6363 10.9018 72.3327 10.9082C72.1315 10.9227 71.9296 10.8934 71.7396 10.8221C71.5497 10.7509 71.3759 10.6392 71.2291 10.4941C71.0823 10.349 70.9656 10.1737 70.8865 9.9791C70.8074 9.78451 70.7676 9.57486 70.7694 9.36333V9.34231ZM70.7694 11.6543H73.7758V21.3018H70.7694V11.6543ZM84.6889 16.478C84.6889 19.6308 83.3561 21.4279 81.0713 21.4279C80.4854 21.4673 79.9021 21.3171 79.4002 20.9976C78.8984 20.6781 78.5022 20.2046 78.2653 19.6413H78.2052V24.3915H75.1988V11.6333H78.2052V13.3568H78.2653C78.4912 12.7842 78.8798 12.2984 79.3783 11.9656C79.8768 11.6328 80.4609 11.4691 81.0512 11.4967C83.3561 11.5387 84.729 13.3463 84.729 16.4991L84.6889 16.478ZM81.6826 16.478C81.6826 14.9437 81.0111 13.9664 79.9589 13.9664C78.9067 13.9664 78.2352 14.9542 78.2252 16.478C78.2152 18.0019 78.9067 18.9792 79.9589 18.9792C81.0111 18.9792 81.6826 18.0229 81.6826 16.4991V16.478ZM89.8499 11.4336C92.3451 11.4336 93.8584 12.6737 93.9285 14.66H91.1927C91.1927 13.9769 90.6516 13.546 89.8198 13.546C88.988 13.546 88.6172 13.8823 88.6172 14.3762C88.6172 14.8701 88.9479 15.0278 89.6194 15.1749L91.5434 15.5848C93.3773 15.9946 94.159 16.7723 94.159 18.2331C94.159 20.2298 92.4253 21.5119 89.8699 21.5119C87.3145 21.5119 85.6409 20.2298 85.5107 18.2646H88.4068C88.497 18.9792 89.0381 19.3996 89.92 19.3996C90.8019 19.3996 91.2027 19.0948 91.2027 18.5904C91.2027 18.0859 90.9221 17.9809 90.2006 17.8232L88.4669 17.4344C86.6731 17.0455 85.7311 16.0472 85.7311 14.5759C85.7512 12.6842 87.3646 11.4547 89.8499 11.4547V11.4336ZM104.19 21.2807H101.294V19.4837H101.234C101.075 20.087 100.724 20.6151 100.239 20.9803C99.7538 21.3454 99.1644 21.5256 98.5683 21.4909C98.1116 21.5182 97.6546 21.4423 97.2282 21.2683C96.8018 21.0944 96.416 20.8266 96.0968 20.4829C95.7776 20.1392 95.5325 19.7276 95.3779 19.2761C95.2234 18.8245 95.1632 18.3434 95.2012 17.8653V11.6333H98.2076V17.1401C98.2076 18.2856 98.7688 18.8952 99.7007 18.8952C99.9193 18.8956 100.135 18.8471 100.335 18.7528C100.534 18.6585 100.711 18.5207 100.856 18.3485C101 18.1764 101.107 17.9739 101.171 17.7546C101.234 17.5353 101.253 17.3043 101.224 17.0771V11.6333H104.23L104.19 21.2807ZM105.643 11.6333H108.549V13.4934H108.61C108.769 12.8981 109.112 12.375 109.586 12.0061C110.059 11.6371 110.636 11.4432 111.225 11.4547C111.825 11.4043 112.421 11.5925 112.894 11.982C113.368 12.3715 113.684 12.9336 113.781 13.5565H113.841C114.023 12.9269 114.399 12.3787 114.911 11.9982C115.422 11.6176 116.04 11.4264 116.667 11.4547C117.076 11.4403 117.483 11.5162 117.862 11.6776C118.241 11.839 118.583 12.0822 118.867 12.3915C119.15 12.7007 119.369 13.069 119.507 13.4725C119.646 13.876 119.703 14.3057 119.673 14.7335V21.3018H116.667V15.5743C116.667 14.5233 116.216 14.0399 115.374 14.0399C115.186 14.0382 115 14.0788 114.829 14.1589C114.657 14.239 114.504 14.3567 114.38 14.5041C114.255 14.6515 114.163 14.8252 114.108 15.0134C114.053 15.2017 114.037 15.4001 114.061 15.5953V21.3018H111.205V15.5322C111.205 14.5654 110.754 14.0399 109.932 14.0399C109.743 14.04 109.555 14.0822 109.382 14.1639C109.209 14.2456 109.054 14.3649 108.928 14.5139C108.802 14.6628 108.708 14.8381 108.651 15.0281C108.594 15.2182 108.577 15.4186 108.6 15.6163V21.3018H105.593L105.643 11.6333Z" fill="#394149"/>
<path id="Vector_2" d="M26.7161 9.132C26.2061 7.90911 25.5311 6.76947 24.7119 5.74805C23.5008 4.19304 21.9894 2.92464 20.2771 2.02633C18.5649 1.12802 16.6907 0.620163 14.7778 0.536186C12.865 0.45221 10.9568 0.794015 9.17902 1.53911C7.40119 2.2842 5.794 3.41569 4.4632 4.8591C3.13241 6.30252 2.10819 8.02512 1.45796 9.91355C0.807735 11.802 0.546238 13.8134 0.690685 15.8154C0.835132 17.8175 1.38225 19.7648 2.29602 21.5291C3.20979 23.2934 4.46951 24.8348 5.99225 26.0518C6.96932 26.8483 8.04895 27.4957 9.19904 27.975C10.8115 28.6679 12.5372 29.0249 14.2798 29.0259C17.8768 29.0175 21.3239 27.5139 23.8655 24.8446C26.4071 22.1753 27.8358 18.5581 27.8385 14.7859C27.8411 12.8402 27.459 10.915 26.7161 9.132ZM14.2698 3.42551C15.8346 3.42534 17.3806 3.78402 18.7994 4.47643C18.4534 4.63319 18.0896 4.74269 17.7171 4.80222C16.4911 4.98833 15.3553 5.58523 14.4794 6.50383C13.6034 7.42244 13.0343 8.61347 12.8568 9.89917C12.7789 10.6202 12.4662 11.291 11.9714 11.7984C11.4767 12.3057 10.8302 12.6186 10.141 12.6841C8.91503 12.8702 7.7793 13.4671 6.90335 14.3857C6.0274 15.3043 5.45821 16.4954 5.28074 17.7811C5.22066 18.4667 4.94172 19.111 4.48907 19.6097C3.70807 17.8791 3.35722 15.9694 3.46918 14.0584C3.58114 12.1474 4.15226 10.2971 5.12939 8.67984C6.10653 7.06253 7.45792 5.73072 9.05781 4.80836C10.6577 3.886 12.4541 3.40307 14.2798 3.40449L14.2698 3.42551ZM5.98223 22.1424C6.10248 22.0268 6.22274 21.9217 6.34299 21.7956C7.23453 20.8891 7.80681 19.6925 7.96643 18.4011C8.03115 17.6752 8.34022 16.9971 8.83827 16.4884C9.31754 15.9652 9.96262 15.6438 10.6521 15.5846C11.8781 15.3985 13.0138 14.8016 13.8898 13.883C14.7657 12.9644 15.3349 11.7734 15.5124 10.4877C15.5558 9.72841 15.8665 9.01308 16.3842 8.48043C16.8753 7.96743 17.5266 7.65767 18.2181 7.60817C19.3444 7.44566 20.3949 6.92057 21.2245 6.10536C22.1691 6.92725 22.9695 7.91598 23.5895 9.02691C23.5514 9.08087 23.5077 9.13022 23.4592 9.17404C22.9809 9.7018 22.3366 10.0303 21.6454 10.0988C20.4181 10.2817 19.2807 10.8776 18.4042 11.7968C17.5276 12.716 16.9595 13.9088 16.7851 15.1958C16.7145 15.9193 16.4075 16.5949 15.9162 17.1082C15.4249 17.6215 14.7795 17.9409 14.0894 18.0123C12.8598 18.1969 11.7198 18.7927 10.8388 19.7109C9.9578 20.6291 9.38273 21.8209 9.19904 23.1092C9.14511 23.6228 8.97691 24.116 8.708 24.549C7.67982 23.9088 6.75896 23.0958 5.98223 22.1424ZM14.2698 26.1989C13.2529 26.2001 12.2409 26.0515 11.2634 25.7575C11.5978 25.1039 11.8151 24.3915 11.9048 23.6557C11.975 22.9338 12.2805 22.2595 12.7698 21.7464C13.259 21.2333 13.9021 20.9129 14.5904 20.8392C15.8183 20.6552 16.9563 20.0592 17.8342 19.1405C18.7121 18.2217 19.2828 17.0295 19.4608 15.7423C19.531 15.0204 19.8365 14.346 20.3258 13.833C20.815 13.3199 21.4581 12.9995 22.1464 12.9258C23.0704 12.7998 23.9511 12.439 24.7119 11.8749C25.1343 13.5542 25.1844 15.3126 24.8582 17.0153C24.5319 18.718 23.8382 20.3197 22.83 21.6976C21.8219 23.0754 20.5262 24.1928 19.0423 24.964C17.5584 25.7351 15.9258 26.1396 14.2698 26.1464V26.1989Z" fill="#394149"/>
</g>
</g>
</g>
</g>
</g>
</g>
</g>
<defs>
<clipPath id="clip0_0_1">
<rect width="1600" height="3120" fill="white" transform="translate(-1013 -899)"/>
</clipPath>
<clipPath id="clip1_0_1">
<rect width="1600" height="3120" fill="white" transform="translate(-1013 -899)"/>
</clipPath>
</defs>
</svg>
