<svg width="150" height="16" viewBox="0 0 150 16" fill="none" xmlns="http://www.w3.org/2000/svg">
<rect width="150" height="16" fill="#1E1E1E"/>
<g id="Product Landing Page" clip-path="url(#clip0_0_1)">
<rect width="1600" height="3120" transform="translate(-818 -906)" fill="white"/>
<g id="Behance Post page" clip-path="url(#clip1_0_1)">
<rect width="1600" height="3120" transform="translate(-818 -906)" fill="#FEFEFE"/>
<g id="Group 95">
<g id="social proof">
<g id="Group 33" opacity="0.7">
<g id="Group 10" opacity="0.7">
<g id="Group 7">
<path id="Vector" d="M74.5885 15.4765H69.4577V1.09148H74.5885V15.4765ZM69.9587 14.951H74.0875V1.61695H69.9587V14.951ZM81.7277 15.4765H76.7V1.09148H87.2043C88.7091 0.963689 90.2076 1.40673 91.4272 2.33998C91.9522 2.8437 92.3591 3.46781 92.6162 4.16364C92.8733 4.85946 92.9736 5.60817 92.9094 6.35135C92.9843 7.63554 92.5946 8.90213 91.818 9.89821C90.8991 11.0038 89.3699 11.5734 87.2734 11.5933C86.7453 11.6081 82.7879 11.5933 81.7307 11.5933L81.7277 15.4765ZM77.1981 14.951H81.2266V11.0626H81.4781C81.5292 11.0626 86.6671 11.0794 87.2614 11.0626C89.2145 11.0448 90.6185 10.5372 91.4392 9.54614C92.1305 8.64493 92.4738 7.50437 92.4013 6.35029C92.4629 5.6844 92.3774 5.01257 92.1515 4.3869C91.9256 3.76124 91.5653 3.19855 91.0985 2.74248C89.9677 1.89134 88.5842 1.49181 87.1973 1.61589H77.2011L77.1981 14.951ZM86.14 8.36176H81.1925V4.44602H86.1731C86.5261 4.39486 86.8858 4.43808 87.2186 4.57164C87.5515 4.70521 87.8468 4.9248 88.0771 5.21004C88.2861 5.57465 88.3846 5.99717 88.3597 6.42176C88.3785 6.81596 88.2972 7.20834 88.1242 7.55885C87.8866 7.85929 87.5793 8.09057 87.2318 8.23045C86.8843 8.37033 86.5083 8.41409 86.14 8.35755V8.36176ZM81.6936 7.8363H86.14C86.9618 7.8363 87.4708 7.65659 87.6963 7.28667C87.8205 7.01779 87.8767 6.71997 87.8596 6.42176C87.8816 6.10864 87.8168 5.79555 87.6733 5.52007L87.6673 5.51061C87.4287 5.14278 86.9547 4.97148 86.1731 4.97148H81.6936V7.8363ZM102.054 15.6888C97.5542 15.6888 94.8685 14.517 93.8453 12.1072C93.6779 11.6418 93.5642 11.157 93.5066 10.6633L93.4625 10.3606H98.8159L98.8509 10.5813C98.8922 10.8054 98.9827 11.0163 99.1155 11.1971C99.327 11.4651 100.032 11.9149 102.373 11.9149C105.187 11.9149 105.187 11.3968 105.187 11.1183C105.187 10.6486 104.862 10.4878 102.567 10.2313L102.131 10.1883C101.267 10.1031 100.175 9.99489 99.6757 9.9497C95.4668 9.55035 93.5878 8.1789 93.5878 5.5043C93.5878 2.69519 96.7856 0.880249 101.735 0.880249C105.773 0.880249 108.374 1.99633 109.465 4.20011C109.724 4.71273 109.898 5.26784 109.98 5.84165L110.015 6.13696H104.655L104.633 5.89945C104.612 5.71384 104.537 5.5397 104.417 5.40131C104.216 5.11966 103.583 4.65411 101.617 4.65411C99.2027 4.65411 98.87 4.97779 98.87 5.3267C98.87 5.79225 99.6326 5.95725 102.077 6.23154C103.096 6.31877 104.734 6.49532 105.296 6.56678C108.824 6.96824 110.398 8.30606 110.398 10.906C110.399 13.0867 108.951 15.6888 102.054 15.6888ZM94.0478 10.8861C94.098 11.2326 94.1844 11.5724 94.3053 11.8992C95.2373 14.0945 97.7727 15.1633 102.054 15.1633C105.633 15.1633 109.901 14.4277 109.901 10.906C109.901 8.60137 108.508 7.46007 105.242 7.08909C104.681 7.01763 103.053 6.84213 102.036 6.75385C99.4302 6.45749 98.3709 6.29985 98.3709 5.3267C98.3709 4.31991 99.5124 4.12865 101.619 4.12865C103.283 4.12865 104.359 4.44392 104.815 5.07973C104.939 5.23637 105.033 5.41702 105.091 5.6115H109.434C109.347 5.20505 109.209 4.81247 109.024 4.44392C108.021 2.4272 105.573 1.40571 101.737 1.40571C97.0922 1.40571 94.0909 3.01467 94.0909 5.5043C94.0909 7.87938 95.7754 9.05221 99.7218 9.42634C100.223 9.47153 101.314 9.57978 102.18 9.66595L102.619 9.70904C104.75 9.94445 105.69 10.0916 105.69 11.1183C105.69 12.2239 104.475 12.4404 102.375 12.4404C100.433 12.4404 99.2067 12.1346 98.7327 11.5324C98.5865 11.3404 98.4764 11.1211 98.408 10.8861H94.0478ZM119.919 15.6709C114.688 15.6709 111.801 13.4524 111.801 9.42319V1.09148H116.864V9.42319C116.864 10.8051 118.044 11.5975 120.099 11.5975C122.063 11.5975 123.283 10.7705 123.283 9.44105V1.09148H128.293V9.86458C128.298 13.5544 125.243 15.6709 119.916 15.6709H119.919ZM112.302 1.61695V9.42319C112.302 14.4025 117.071 15.1455 119.919 15.1455C122.863 15.1455 127.8 14.4592 127.8 9.86458V1.61695H123.792V9.44105C123.792 11.07 122.345 12.123 120.107 12.123C117.768 12.123 116.371 11.1141 116.371 9.42319V1.61695H112.302ZM149.526 15.4765H144.748V8.9818L142.038 15.4765H137.871L135.189 8.99441V15.4765H130.394V1.09148H136.701L139.978 9.02279L143.413 1.09148H149.532L149.526 15.4765ZM145.249 14.951H149.025V1.61695H143.732L139.962 10.3175L136.368 1.61695H130.891V14.951H134.684V6.46589L138.191 14.9542H141.699L145.243 6.47851L145.249 14.951ZM4.80165 1.35421H0.237976V15.2138H12.8487V11.524H4.80165V1.35421ZM22.0602 1.03894C16.2349 1.03894 13.1714 3.93423 13.1714 8.1852C13.1714 12.9879 16.3872 15.424 22.0602 15.424C28.3055 15.424 30.932 12.5991 30.932 8.1852C30.932 3.70302 27.9687 1.03683 22.0602 1.03683V1.03894ZM22.0432 4.64044C22.4397 4.63849 22.836 4.66271 23.2297 4.71296L18.1279 10.0632C17.8864 9.49054 17.7687 8.86897 17.7832 8.243C17.7832 6.06865 18.8274 4.63834 22.0432 4.63834V4.64044ZM22.0602 11.8792C21.6781 11.881 21.2963 11.8585 20.9168 11.8119L26.0276 6.45223C26.2601 7.01542 26.3713 7.62541 26.3533 8.2388C26.3533 10.3543 25.3913 11.8771 22.0602 11.8771V11.8792ZM39.9742 9.98753H44.6711C44.602 10.3294 44.4579 10.6496 44.2502 10.9229C43.2765 11.7548 42.0337 12.1596 40.7819 12.0526C40.1518 12.1233 39.5146 12.0511 38.9134 11.841C38.3122 11.6308 37.7611 11.2876 37.2975 10.8346C36.8227 10.1041 36.597 9.22678 36.6572 8.34494C36.5803 7.42091 36.8256 6.49902 37.3476 5.75022C38.004 4.97254 39.1154 4.63729 40.7488 4.63729C41.7882 4.54705 42.8262 4.82696 43.6951 5.43179C43.9689 5.65992 44.1737 5.96662 44.2843 6.31456H48.6405C48.6089 5.74125 48.4774 5.17886 48.2527 4.65516C47.2095 2.43036 44.7844 1.1062 40.6606 1.1062C37.074 1.1062 34.6669 2.2538 33.3371 3.98467C32.4588 5.2346 32.008 6.75851 32.0574 8.31026C32.0006 9.89711 32.4398 11.46 33.3081 12.7609C34.6218 14.5475 36.9618 15.4261 39.7738 15.4261C41.6433 15.5628 43.4999 15.0137 45.0259 13.8728L45.1441 15.2138H48.7628V7.00397H39.9742V9.98753ZM59.0336 1.03578C53.2092 1.03578 50.1447 3.93107 50.1447 8.18205C50.1447 12.9848 53.3595 15.4208 59.0336 15.4208C65.2798 15.4208 67.9064 12.5959 67.9064 8.18205C67.9064 3.70302 64.9431 1.03683 59.0336 1.03683V1.03578ZM59.0175 4.63729C59.4037 4.63609 59.7895 4.65925 60.173 4.70665L55.0912 10.039C54.8573 9.47274 54.7435 8.85995 54.7575 8.243C54.7535 6.06865 55.8017 4.63834 59.0175 4.63834V4.63729ZM59.0336 11.876C58.6414 11.8778 58.2495 11.8539 57.8601 11.8046L62.9879 6.42596C63.2291 6.99664 63.3446 7.61699 63.3257 8.2409C63.3277 10.3543 62.3696 11.8771 59.0336 11.8771V11.876Z" fill="#394149"/>
</g>
</g>
</g>
</g>
</g>
</g>
</g>
<defs>
<clipPath id="clip0_0_1">
<rect width="1600" height="3120" fill="white" transform="translate(-818 -906)"/>
</clipPath>
<clipPath id="clip1_0_1">
<rect width="1600" height="3120" fill="white" transform="translate(-818 -906)"/>
</clipPath>
</defs>
</svg>
