<svg width="131" height="32" viewBox="0 0 131 32" fill="none" xmlns="http://www.w3.org/2000/svg">
<rect width="131" height="32" fill="#1E1E1E"/>
<g id="Product Landing Page" clip-path="url(#clip0_0_1)">
<rect width="1600" height="3120" transform="translate(-429 -898)" fill="white"/>
<g id="Behance Post page" clip-path="url(#clip1_0_1)">
<rect width="1600" height="3120" transform="translate(-429 -898)" fill="#FEFEFE"/>
<g id="Group 95">
<g id="social proof">
<g id="Group 33" opacity="0.7">
<g id="Group 10" opacity="0.7">
<g id="Group 5">
<path id="Vector" d="M31.7505 7.67169H34.7569V22.8574H31.7505V7.67169Z" fill="#394149"/>
<path id="Vector_2" d="M36.4404 17.6553C36.4404 16.5628 36.7497 15.4948 37.3291 14.5869C37.9086 13.6789 38.7321 12.9718 39.6952 12.5551C40.6583 12.1385 41.7176 12.0311 42.739 12.2465C43.7604 12.462 44.6978 12.9906 45.4323 13.7653C46.1669 14.5401 46.6656 15.5261 46.8652 16.5984C47.0648 17.6707 46.9563 18.781 46.5535 19.7886C46.1507 20.7961 45.4717 21.6556 44.6025 22.2581C43.7334 22.8605 42.7133 23.1787 41.6714 23.1725C40.9804 23.1782 40.2953 23.0391 39.6562 22.7634C39.0172 22.4878 38.437 22.0811 37.9498 21.5672C37.4626 21.0533 37.0781 20.4426 36.8189 19.7709C36.5597 19.0991 36.431 18.3799 36.4404 17.6553ZM43.9763 17.6553C43.9645 17.1843 43.8205 16.7274 43.5624 16.3417C43.3042 15.9561 42.9434 15.6588 42.525 15.4871C42.1066 15.3154 41.6492 15.2768 41.21 15.3763C40.7708 15.4757 40.3694 15.7088 40.0558 16.0462C39.7422 16.3837 39.5305 16.8106 39.4471 17.2736C39.3637 17.7366 39.4124 18.2151 39.5869 18.6492C39.7615 19.0834 40.0542 19.454 40.4286 19.7146C40.8029 19.9752 41.2422 20.1142 41.6915 20.1144C41.9974 20.1206 42.3012 20.0607 42.584 19.9382C42.8668 19.8157 43.1225 19.6334 43.3351 19.4026C43.5476 19.1718 43.7125 18.8975 43.8194 18.5969C43.9263 18.2962 43.9729 17.9757 43.9563 17.6553H43.9763Z" fill="#394149"/>
<path id="Vector_3" d="M58.7978 12.4533V22.3425C58.7978 25.8315 56.1922 27.3133 53.5567 27.3133C52.627 27.3933 51.6946 27.1996 50.8642 26.754C50.0339 26.3084 49.3386 25.6286 48.8567 24.7911L51.3921 23.2568C51.5975 23.6912 51.9243 24.0496 52.329 24.2843C52.7336 24.519 53.1968 24.6188 53.6569 24.5704C53.95 24.6083 54.2474 24.5778 54.5279 24.481C54.8085 24.3843 55.0652 24.2238 55.2796 24.0109C55.4941 23.798 55.6611 23.5381 55.7686 23.2497C55.8761 22.9612 55.9216 22.6514 55.9016 22.3425V21.3861C55.5518 21.831 55.1079 22.1841 54.6051 22.4176C54.1024 22.6511 53.5547 22.7585 53.0055 22.7313C51.6766 22.7313 50.4021 22.1777 49.4625 21.1923C48.5228 20.2068 47.9949 18.8703 47.9949 17.4767C47.9949 16.0831 48.5228 14.7466 49.4625 13.7611C50.4021 12.7757 51.6766 12.2221 53.0055 12.2221C53.5547 12.1949 54.1024 12.3023 54.6051 12.5358C55.1079 12.7693 55.5518 13.1224 55.9016 13.5673V12.5164L58.7978 12.4533ZM55.9016 17.4452C55.9216 16.9424 55.7977 16.4448 55.5459 16.0164C55.2941 15.5881 54.9258 15.2485 54.4885 15.0414C54.0511 14.8343 53.5647 14.7691 53.0918 14.8542C52.6188 14.9393 52.181 15.1709 51.8345 15.5191C51.4881 15.8673 51.2488 16.3162 51.1476 16.8081C51.0464 17.3 51.0878 17.8124 51.2665 18.2794C51.4453 18.7465 51.7531 19.1468 52.1505 19.4288C52.5479 19.7109 53.0167 19.8619 53.4965 19.8623C53.8096 19.8859 54.124 19.8405 54.4193 19.7288C54.7147 19.6171 54.9843 19.4417 55.211 19.2139C55.4377 18.9861 55.6162 18.711 55.7352 18.4064C55.8541 18.1017 55.9108 17.7742 55.9016 17.4452Z" fill="#394149"/>
<path id="Vector_4" d="M60.4914 17.6554C60.4914 16.5637 60.8003 15.4965 61.3788 14.589C61.9573 13.6814 62.7796 12.9743 63.7415 12.557C64.7035 12.1397 65.7618 12.031 66.7827 12.2448C67.8035 12.4585 68.7409 12.9851 69.4763 13.7577C70.2117 14.5304 70.712 15.5145 70.9138 16.5854C71.1157 17.6564 71.0101 18.7661 70.6103 19.774C70.2106 20.782 69.5347 21.643 68.6682 22.248C67.8017 22.853 66.7835 23.1748 65.7425 23.1727C65.0502 23.1798 64.3636 23.0418 63.7228 22.7669C63.082 22.492 62.5 22.0856 62.0109 21.5718C61.5218 21.0579 61.1355 20.4468 60.8746 19.7743C60.6137 19.1017 60.4834 18.3814 60.4914 17.6554ZM68.0274 17.6554C68.0155 17.1839 67.8713 16.7266 67.6127 16.3407C67.3541 15.9548 66.9927 15.6576 66.5737 15.4862C66.1547 15.3148 65.6968 15.2768 65.2574 15.3771C64.818 15.4774 64.4165 15.7115 64.1034 16.05C63.7902 16.3886 63.5793 16.8165 63.4971 17.2801C63.4148 17.7438 63.4648 18.2226 63.6409 18.6566C63.817 19.0906 64.1113 19.4604 64.487 19.7198C64.8626 19.9791 65.3028 20.1164 65.7526 20.1145C66.0585 20.1208 66.3623 20.0608 66.6451 19.9383C66.9279 19.8158 67.1836 19.6335 67.3962 19.4027C67.6087 19.1719 67.7736 18.8976 67.8805 18.5969C67.9874 18.2963 68.034 17.9758 68.0174 17.6554H68.0274Z" fill="#394149"/>
<path id="Vector_5" d="M72.3867 9.66836C72.3867 9.29839 72.4913 8.93672 72.6873 8.62909C72.8833 8.32147 73.1619 8.08171 73.4878 7.94012C73.8137 7.79854 74.1724 7.7615 74.5184 7.83367C74.8644 7.90585 75.1823 8.08401 75.4317 8.34563C75.6812 8.60724 75.8511 8.94055 75.9199 9.30342C75.9887 9.66629 75.9534 10.0424 75.8184 10.3842C75.6834 10.726 75.4548 11.0182 75.1614 11.2237C74.8681 11.4293 74.5232 11.539 74.1704 11.539C73.699 11.5335 73.2483 11.3347 72.9149 10.9851C72.5815 10.6354 72.3919 10.1628 72.3867 9.66836ZM72.6773 12.4533H75.6836V22.8574H72.6773V12.4533Z" fill="#394149"/>
<path id="Vector_6" d="M88.5507 17.6554C88.5844 18.3473 88.4873 19.0394 88.265 19.6918C88.0426 20.3442 87.6994 20.9441 87.2551 21.4569C86.8109 21.9697 86.2743 22.3853 85.6763 22.6797C85.0783 22.9742 84.4306 23.1417 83.7706 23.1727C83.2105 23.2118 82.6493 23.1177 82.1287 22.8975C81.6082 22.6774 81.1417 22.3367 80.7642 21.9011V27.0401H77.7579V12.4533H80.7642V13.4307C81.1422 12.9963 81.609 12.6573 82.1296 12.4389C82.6503 12.2205 83.2113 12.1284 83.7706 12.1696C84.428 12.2006 85.073 12.3672 85.669 12.6596C86.265 12.9521 86.8002 13.3649 87.2441 13.8743C87.688 14.3837 88.0318 14.9798 88.256 15.6286C88.4802 16.2773 88.5803 16.966 88.5507 17.6554ZM85.5444 17.6554C85.5325 17.1673 85.3836 16.6937 85.1162 16.294C84.8488 15.8943 84.4748 15.5863 84.0412 15.4085C83.6075 15.2308 83.1335 15.1912 82.6785 15.2947C82.2235 15.3983 81.8078 15.6404 81.4834 15.9906C81.1591 16.3409 80.9405 16.7838 80.8552 17.2638C80.7698 17.7438 80.8215 18.2395 81.0036 18.6888C81.1858 19.1382 81.4904 19.5211 81.8792 19.7897C82.268 20.0583 82.7238 20.2005 83.1894 20.1986C83.5083 20.2128 83.8264 20.1561 84.123 20.0324C84.4196 19.9086 84.6878 19.7204 84.9102 19.4803C85.1325 19.2401 85.304 18.9534 85.4133 18.6389C85.5226 18.3244 85.5672 17.9893 85.5444 17.6554Z" fill="#394149"/>
<path id="Vector_7" d="M97.7002 19.7361C97.7002 22.1322 95.6959 23.1516 93.5714 23.1516C92.7049 23.2334 91.8349 23.0408 91.0739 22.5987C90.3129 22.1565 89.6958 21.4852 89.3024 20.6715L91.8879 19.1371C91.9903 19.5121 92.2124 19.8388 92.517 20.0627C92.8217 20.2865 93.1903 20.3938 93.5614 20.3667C94.2729 20.3667 94.6337 20.1355 94.6337 19.7151C94.6337 18.5696 89.7533 19.1792 89.7533 15.5745C89.7533 13.3045 91.5772 12.1695 93.6416 12.1695C94.4263 12.1327 95.2059 12.3194 95.8975 12.7098C96.5892 13.1002 97.1671 13.6798 97.5699 14.387L94.9844 15.8162C94.8702 15.5451 94.6836 15.3145 94.447 15.1522C94.2105 14.99 93.9342 14.903 93.6516 14.9019C93.1305 14.9019 92.8198 15.1121 92.8198 15.4799C92.8198 16.678 97.7002 15.8898 97.7002 19.7361Z" fill="#394149"/>
<path id="Vector_8" d="M108.593 12.4533V22.8576H105.587V21.8802C105.245 22.3129 104.812 22.6552 104.321 22.8798C103.83 23.1043 103.296 23.2047 102.761 23.1729C100.757 23.1729 99.043 21.67 99.043 18.864V12.4533H102.049V18.3911C102.026 18.6394 102.054 18.89 102.132 19.1258C102.209 19.3616 102.335 19.5768 102.5 19.7567C102.665 19.9365 102.865 20.0767 103.086 20.1676C103.308 20.2584 103.546 20.2977 103.783 20.2828C104.865 20.2828 105.627 19.6102 105.627 18.1809V12.4533H108.593Z" fill="#394149"/>
<path id="Vector_9" d="M125.629 16.4678V22.8574H122.623V16.741C122.623 15.6901 122.152 15.0385 121.2 15.0385C120.248 15.0385 119.647 15.7637 119.647 16.9932V22.8574H116.64V16.741C116.64 15.6901 116.169 15.0385 115.217 15.0385C114.265 15.0385 113.664 15.7637 113.664 16.9932V22.8574H110.658V12.4533H113.664V13.4096C113.975 12.9871 114.382 12.6525 114.847 12.436C115.313 12.2195 115.822 12.1279 116.33 12.1695C116.838 12.1417 117.345 12.253 117.8 12.4925C118.255 12.7321 118.643 13.0915 118.925 13.5357C119.255 13.0717 119.692 12.703 120.195 12.464C120.698 12.2251 121.251 12.1238 121.801 12.1695C124.146 12.1695 125.629 13.872 125.629 16.4678Z" fill="#394149"/>
<path id="Vector_10" d="M13.8425 4.93931V0.4729H0.414062V31.1598H13.8425V26.6934C11.0917 26.6934 8.45353 25.5474 6.50841 23.5076C4.56329 21.4677 3.47054 18.7011 3.47054 15.8163C3.47054 12.9316 4.56329 10.165 6.50841 8.12512C8.45353 6.08528 11.0917 4.93931 13.8425 4.93931Z" fill="#394149"/>
<path id="Vector_11" d="M13.8424 4.93921V26.6933C16.5933 26.6933 19.2314 25.5473 21.1765 23.5075C23.1217 21.4676 24.2144 18.701 24.2144 15.8163C24.2144 12.9315 23.1217 10.1649 21.1765 8.12502C19.2314 6.08518 16.5933 4.93921 13.8424 4.93921Z" fill="#394149"/>
<path id="Vector_12" d="M128.155 12.3903C129.372 12.3903 130.359 11.3551 130.359 10.0782C130.359 8.80136 129.372 7.76624 128.155 7.76624C126.937 7.76624 125.95 8.80136 125.95 10.0782C125.95 11.3551 126.937 12.3903 128.155 12.3903Z" fill="#394149"/>
</g>
</g>
</g>
</g>
</g>
</g>
</g>
<defs>
<clipPath id="clip0_0_1">
<rect width="1600" height="3120" fill="white" transform="translate(-429 -898)"/>
</clipPath>
<clipPath id="clip1_0_1">
<rect width="1600" height="3120" fill="white" transform="translate(-429 -898)"/>
</clipPath>
</defs>
</svg>
