<svg width="160" height="38" viewBox="0 0 160 38" fill="none" xmlns="http://www.w3.org/2000/svg">
<rect width="160" height="38" fill="#1E1E1E"/>
<g id="Product Landing Page" clip-path="url(#clip0_0_1)">
<rect width="1600" height="3120" transform="translate(-623 -895)" fill="white"/>
<g id="Behance Post page" clip-path="url(#clip1_0_1)">
<rect width="1600" height="3120" transform="translate(-623 -895)" fill="#FEFEFE"/>
<g id="Group 95">
<g id="social proof">
<g id="Group 33" opacity="0.7">
<g id="Group 10" opacity="0.7">
<g id="Group 6">
<path id="Vector" d="M0.82605 0.320129V37.5784H159.741V0.320129H0.82605ZM157.736 35.4765H76.5645V2.42197H157.736V35.4765Z" fill="#394149"/>
<path id="Vector_2" d="M9.27295 25.1912V12.804H13.3496V21.8923H20.5408V25.1912H9.27295Z" fill="white"/>
<path id="Vector_3" d="M36.613 18.9109C36.613 22.855 34.2661 25.3803 28.6832 25.3803C23.6125 25.3803 20.7384 23.2028 20.7384 18.9109C20.7384 15.1076 23.4782 12.5203 28.6832 12.5203C33.9694 12.5203 36.613 14.9027 36.613 18.9109ZM32.5204 18.9582C32.5204 17.1716 31.8129 15.7392 28.6682 15.7392C25.7941 15.7392 24.8601 17.0171 24.8601 18.9582C24.8601 20.9307 25.717 22.2086 28.6812 22.2086C31.6646 22.2086 32.5204 20.8519 32.5204 18.9582Z" fill="white"/>
<path id="Vector_4" d="M49.2236 25.1912L49.1184 23.991C47.7547 25.0117 46.0948 25.5029 44.4235 25.3804C41.9112 25.3804 39.8188 24.5911 38.6453 22.9979C37.8713 21.8348 37.4804 20.4385 37.5319 19.0212C37.488 17.6336 37.8923 16.2712 38.6793 15.1549C39.8669 13.609 42.0194 12.5833 45.2242 12.5833C48.911 12.5833 51.0776 13.7666 52.0095 15.7549C52.2096 16.2232 52.3271 16.7256 52.3563 17.2378H48.456C48.3578 16.9266 48.1749 16.6522 47.9299 16.4486C47.153 15.9084 46.2253 15.6585 45.2963 15.7392C44.7515 15.6699 44.1988 15.7227 43.6749 15.8941C43.1509 16.0655 42.6676 16.3515 42.2569 16.7334C41.7906 17.4028 41.5716 18.2269 41.6406 19.0527C41.5866 19.8407 41.7878 20.6246 42.2118 21.2775C42.6263 21.6824 43.1189 21.9892 43.6562 22.177C44.1936 22.3649 44.7632 22.4294 45.3264 22.3663C46.4452 22.4617 47.5558 22.0998 48.426 21.3564C48.6129 21.1113 48.7417 20.8231 48.8018 20.5156H44.6049V17.8536H52.4585V25.1912H49.2236Z" fill="white"/>
<path id="Vector_5" d="M69.4766 18.9109C69.4766 22.855 67.1286 25.3803 61.5468 25.3803C56.4761 25.3803 53.602 23.2028 53.602 18.9109C53.602 15.1076 56.3418 12.5203 61.5468 12.5203C66.829 12.5203 69.4766 14.9027 69.4766 18.9109ZM65.384 18.9582C65.384 17.1716 64.6765 15.7392 61.5318 15.7392C58.6577 15.7392 57.7237 17.0171 57.7237 18.9582C57.7237 20.9307 58.5815 22.2086 61.5448 22.2086C64.5271 22.2086 65.384 20.8519 65.384 18.9582Z" fill="white"/>
<path id="Vector_6" d="M83.4311 25.1439V12.7566H86.3373V25.1439H83.4311Z" fill="#394149"/>
<path id="Vector_7" d="M101.261 19.9681C100.524 20.9781 99.2566 21.4394 97.4699 21.451C97.0931 21.451 92.0975 21.4352 92.0975 21.4352V25.1439H89.2535V12.7567H97.4709C98.1295 12.6837 98.7954 12.7569 99.4253 12.9717C100.055 13.1864 100.635 13.5379 101.127 14.0031C101.776 14.8903 102.092 15.9965 102.014 17.1117C102.081 18.1261 101.815 19.1338 101.261 19.9681ZM98.929 15.9295C98.6283 15.4565 97.9799 15.1938 96.8826 15.1938H92.0825V18.9645H96.8516C98.025 18.9645 98.6434 18.7123 98.929 18.2226C99.0988 17.8776 99.1718 17.4891 99.1394 17.1023C99.1647 16.699 99.0923 16.2955 98.929 15.9295Z" fill="#394149"/>
<path id="Vector_8" d="M110.395 25.3331C105.038 25.3331 103.398 23.2313 103.398 21.1515H106.438C106.438 22.1772 107.777 22.9507 110.531 22.9507C113.268 22.9507 113.991 22.4452 113.991 21.6244C113.991 20.7091 113.45 20.4253 110.906 20.1258C110.405 20.0785 109.041 19.9051 108.529 19.8263C104.922 19.3996 103.533 18.2793 103.533 16.2752C103.533 14.1608 105.565 12.5676 109.973 12.5676C114.758 12.5676 116.594 14.5401 116.594 16.5915H113.588C113.588 15.5501 112.46 14.95 109.796 14.95C107.057 14.95 106.471 15.3441 106.471 16.1176C106.471 16.9226 107.072 17.1748 109.978 17.5374C110.641 17.633 112.115 17.8064 112.521 17.8527C115.591 18.1837 116.975 19.3513 116.975 21.4184C116.97 23.8808 114.864 25.3331 110.395 25.3331Z" fill="#394149"/>
<path id="Vector_9" d="M125.533 25.3174C121.607 25.3174 119.049 23.6916 119.049 20.2729V12.7566H121.922V20.3149C121.922 21.8777 123.141 22.9181 125.654 22.9181C127.925 22.9181 129.28 21.9407 129.28 20.3149V12.7566H132.124V20.5535C132.124 23.6611 129.746 25.3174 125.533 25.3174Z" fill="#394149"/>
<path id="Vector_10" d="M147.697 25.1439V16.8752L144.01 25.1439H141.213L137.631 16.8752V25.1439H134.925V12.7566H138.591L142.654 22.1929L146.806 12.7566H150.414V25.1439H147.697Z" fill="#394149"/>
</g>
</g>
</g>
</g>
</g>
</g>
</g>
<defs>
<clipPath id="clip0_0_1">
<rect width="1600" height="3120" fill="white" transform="translate(-623 -895)"/>
</clipPath>
<clipPath id="clip1_0_1">
<rect width="1600" height="3120" fill="white" transform="translate(-623 -895)"/>
</clipPath>
</defs>
</svg>
